<svg width="40" height="40" viewBox="0 0 40 40" fill="none" xmlns="http://www.w3.org/2000/svg">
<rect width="40" height="40" rx="12" fill="#191C20"/>
<g clip-path="url(#clip0_431_1123)">
<path d="M31.8834 20.5146C31.8834 27.1421 26.5109 32.5146 19.8834 32.5146C13.256 32.5146 7.88344 27.1421 7.88344 20.5146C7.88344 13.8872 13.256 8.51465 19.8834 8.51465C26.5109 8.51465 31.8834 13.8872 31.8834 20.5146Z" fill="white"/>
</g>
<path d="M32 22C32 24.6389 26.6607 23.0632 26.3406 23.7261C25.839 24.7648 31.8648 23.6768 31.0524 24.8769C30.517 25.6679 24.6546 24.7269 23.9846 25.4523C23.2493 26.2483 30.7713 25.447 29.8745 26.0277C29.6316 26.185 28.4661 27.1784 26.3406 26.8846C25.8036 28.0354 28.9258 27.3372 28.4661 27.7538C28.4661 28.9046 23.0913 28.0023 22.727 28.3292C22.138 29.4799 27.6206 29.1882 27.2881 29.4799C26.6991 30.0553 23.5443 29.1636 23.1652 29.4799C21.9873 31.2061 27.2881 30.0553 26.1102 31.2061C20.8093 32.3569 22.4587 32.5666 24.9322 32.9322C28.8247 33.5076 16.6864 34.6584 16.0974 33.5076C15.7389 33.1993 19.7175 32.2415 19.2728 32.0361C18.9074 31.8673 13.9993 32.6933 13.7415 31.7815C14.3305 30.6307 19.6313 31.7815 19.2728 30.6307C18.4534 30.0553 16.135 30.6164 15.7389 30.4062C15.1499 29.293 20.8093 29.4799 20.2203 28.9046C19.6313 28.3292 12.2049 29.4799 11.616 28.9046C11.027 27.7538 18.5434 27.4272 18.0948 27.1784C17.1556 26.6576 10.2372 27.3889 9.84901 27.1784C8.77068 26.5938 12.086 26.815 11.027 26.0277C9.92314 25.207 16.6169 25.7273 15.7389 24.8769C14.7421 23.9116 8.85892 25.0377 8.44062 24.3015C7.8375 23.2401 12.9202 23.3014 13.3829 23.1508C13.9719 22.5754 6.0847 22.5754 8.44062 22C8.44062 22 13.7146 22 20.2203 22C26.726 22 32 22 32 22Z" fill="#A3E6FF"/>
<defs>
<clipPath id="clip0_431_1123">
<rect width="24" height="21" fill="white" transform="translate(8)"/>
</clipPath>
</defs>
</svg>
